<svg class="icon" viewBox="0 0 1024 1024" xmlns="http://www.w3.org/2000/svg" width="200" height="200"><path d="m193.026 827.203.122-86.843.608-292.885.365-222.095 441.637.73 214.555 215.284-.608 300.06-.122 86.844c-.122 37.219-30.529 67.504-67.748 67.504l-254.206-.486-344.698-.608h-9.122c38.435-9.244 19.217-67.505 19.217-67.505z" fill="#FFF"/><path d="m635.393 441.03 214.92.486L635.758 226.11z" fill="#23A7B5"/><path d="m850.313 441.516-215.041-.365 214.554 215.284z" fill="#CFE9F8"/><path d="m257.612 627.487 227.082.487V607.54l-227.082-.365zm0-58.504 227.204.365.121-94.141-227.082-.486zm.608-290.451 340.928.73v-9l-340.928-.61zm-.365 162.862 341.05.608-.122-9-340.928-.609zm-.365 245.814 227.083.364V667.26l-227.083-.486zm-.122 59.598 227.083.365.122-20.312-227.205-.365zm-.121 59.599 227.204.486v-20.434l-227.204-.365zm275.977-178.431 227.205.486v-20.433l-227.083-.365zm0 59.72 227.083.365v-20.312l-227.083-.487zm-.121 59.599 227.082.364v-20.312l-227.082-.365zm-.122 59.598 227.083.365.121-20.312-227.204-.365z" fill="#A4D5E3"/><path d="M332.292 411.838h-20.555l-32.11-67.626-.365.122-.122 67.504h-20.677l.243-105.696h20.677l32.232 67.504.365-.121.122-67.383h20.555l-.365 105.696zm72.37-46.22-35.516-.12v29.92l41.719.122v16.541l-62.396-.121.122-105.697 62.274.122-.122 16.42-41.597-.122-.122 26.272 35.516.122.122 16.542zm87.938 8.272h.487l11.554-67.383h20.07l-20.556 105.696h-19.218l-14.717-64.707h-.486l-14.84 64.707h-19.217l-20.19-105.696h20.069l11.311 67.504h.365l15.447-67.383h14.839L492.6 373.89zm88.425 10.825c0-4.136-1.095-7.42-3.163-9.73-2.189-2.433-5.838-4.744-11.19-7.055-10.946-3.892-19.217-8.15-24.69-13.015-5.595-4.865-8.271-11.676-8.271-20.433 0-8.636 3.162-15.69 9.609-21.164 6.324-5.352 14.595-8.15 24.447-8.15 10.095 0 18.245 3.042 24.57 9.123 6.202 6.081 9.243 13.744 9.122 22.988l-.122.365h-20.069c0-4.865-1.216-8.757-3.649-11.798-2.432-3.04-5.838-4.5-10.217-4.5-4.135 0-7.297 1.216-9.608 3.77-2.311 2.433-3.406 5.595-3.406 9.366 0 3.527 1.216 6.324 3.892 8.635 2.554 2.19 7.055 4.744 13.258 7.541 10.095 3.406 17.514 7.785 22.623 12.893 4.987 5.23 7.54 12.285 7.54 21.164 0 9.122-3.162 16.298-9.243 21.528-6.081 5.108-14.23 7.784-24.326 7.663-10.095 0-18.73-2.92-26.15-8.88-7.298-5.96-10.947-14.352-10.704-25.298l.122-.487h20.069c0 6.568 1.338 11.19 4.135 14.11 2.798 2.918 6.933 4.256 12.406 4.256 4.38 0 7.541-1.094 9.73-3.527 2.19-2.19 3.285-5.352 3.285-9.365z" fill="#23A7B5"/></svg>